<?xml version="1.0" standalone="no"?>
<!DOCTYPE svg PUBLIC "-//W3C//DTD SVG 20010904//EN"
 "http://www.w3.org/TR/2001/REC-SVG-20010904/DTD/svg10.dtd">
<svg version="1.0" xmlns="http://www.w3.org/2000/svg"
 width="512.000000pt" height="512.000000pt" viewBox="0 0 512.000000 512.000000"
 preserveAspectRatio="xMidYMid meet">
<metadata>
Created by potrace 1.14, written by Peter Selinger 2001-2017
</metadata>
<g transform="translate(0.000000,512.000000) scale(0.100000,-0.100000)"
fill="#000000" stroke="none">
<path d="M2010 4908 c-95 -14 -146 -29 -218 -66 -116 -59 -234 -176 -290 -287
-62 -124 -85 -285 -62 -436 19 -130 38 -239 50 -294 7 -27 14 -61 16 -75 12
-65 78 -298 118 -415 74 -221 158 -419 264 -625 121 -236 183 -318 240 -322
110 -6 153 36 187 182 35 148 81 270 137 363 37 61 150 206 161 207 13 0 107
-101 152 -165 81 -113 127 -221 194 -450 11 -39 30 -81 42 -94 53 -57 140 -63
197 -13 59 51 243 404 349 668 158 391 287 921 285 1174 -2 412 -381 720 -787
641 -33 -7 -100 -21 -150 -32 -49 -10 -99 -21 -110 -23 -11 -2 -84 -20 -162
-40 -79 -20 -153 -37 -165 -38 -13 -1 -68 26 -123 59 -55 32 -113 65 -130 71
-39 15 -126 20 -195 10z m218 -231 c40 -26 76 -47 81 -47 5 0 11 -4 13 -8 3
-7 88 -46 153 -70 78 -29 193 -41 350 -38 88 1 172 8 187 14 60 25 72 112 21
152 -14 11 -24 22 -22 23 12 9 132 27 175 27 188 -1 373 -137 439 -326 21 -57
28 -195 14 -274 -5 -30 -11 -68 -13 -85 -8 -58 -28 -161 -48 -245 -11 -47 -21
-92 -23 -101 -2 -9 -22 -80 -44 -158 -70 -245 -193 -546 -311 -766 -27 -49
-55 -102 -63 -118 -14 -27 -15 -26 -51 84 -44 131 -79 205 -151 314 -62 93
-185 224 -235 250 -42 22 -127 22 -166 1 -83 -43 -219 -221 -297 -387 -37 -80
-87 -222 -90 -257 -2 -33 -9 -27 -41 31 -128 236 -274 570 -321 737 -7 25 -27
92 -44 150 -28 96 -73 282 -85 355 -3 17 -8 46 -12 65 -18 101 -31 232 -28
286 9 164 118 324 270 396 76 36 132 48 209 44 52 -2 69 -8 133 -49z"/>
<path d="M4645 2618 c-116 -24 -115 -24 -532 -335 -172 -128 -321 -238 -332
-245 -17 -10 -24 -7 -59 29 -131 135 -344 203 -534 169 -21 -3 -55 -9 -75 -12
-21 -3 -45 -7 -53 -9 -8 -2 -31 -7 -50 -10 -76 -13 -91 -15 -122 -20 -18 -3
-85 -15 -148 -26 -63 -11 -148 -26 -189 -33 -148 -27 -250 -21 -431 23 -91 22
-196 43 -235 47 -75 7 -234 7 -275 -1 -14 -2 -45 -7 -69 -10 -58 -8 -199 -50
-271 -80 -81 -34 -142 -68 -231 -131 l-77 -53 -7 47 c-15 103 -28 144 -52 169
-24 23 -31 25 -82 19 -31 -3 -67 -8 -81 -11 -14 -3 -41 -8 -60 -11 -52 -8 -65
-10 -190 -33 -63 -11 -131 -23 -150 -26 -19 -3 -57 -10 -85 -15 -27 -5 -63
-12 -80 -14 -109 -18 -134 -26 -154 -50 -22 -26 -20 -75 9 -243 16 -87 31
-174 34 -193 3 -19 8 -46 11 -60 8 -38 13 -68 25 -145 5 -38 15 -90 20 -115 5
-25 12 -61 14 -80 3 -19 8 -45 10 -56 2 -12 7 -37 10 -55 5 -31 50 -288 61
-349 3 -14 16 -92 30 -175 39 -224 41 -234 57 -278 9 -24 48 -52 68 -50 3 1
31 4 63 8 32 3 64 8 70 10 7 3 91 18 187 34 96 17 189 33 205 36 52 10 145 26
173 30 95 14 124 26 142 59 13 26 16 68 6 112 -7 29 -2 34 91 112 54 45 123
94 153 109 50 25 66 27 165 28 61 0 153 -4 205 -8 183 -15 317 -25 425 -32 81
-5 214 -15 265 -20 269 -25 472 -25 590 -1 164 35 317 97 445 181 78 52 120
91 593 555 115 113 378 371 585 574 395 387 407 401 378 455 -35 65 -182 159
-276 177 -59 11 -145 12 -190 2z m204 -199 l45 -20 -126 -122 c-70 -67 -232
-225 -361 -352 -719 -706 -904 -883 -950 -913 -121 -78 -292 -141 -434 -160
-65 -9 -230 -8 -358 2 -125 11 -203 16 -285 21 -47 3 -110 7 -140 10 -30 3
-89 7 -130 10 -122 8 -230 15 -305 22 -132 11 -269 10 -312 -3 -24 -7 -43 -11
-43 -9 0 13 -147 -73 -205 -120 l-70 -56 -7 28 c-4 15 -10 46 -14 68 -3 22
-23 141 -45 265 -22 124 -42 236 -44 250 -2 14 -17 102 -34 195 l-29 170 41
38 c61 56 159 123 238 162 235 119 482 142 769 71 190 -46 199 -48 310 -51 87
-2 222 16 508 69 17 3 47 8 65 11 17 3 57 10 87 15 30 5 70 12 89 15 19 3 38
8 43 11 5 4 54 8 109 10 81 3 110 1 161 -17 67 -22 133 -64 180 -113 36 -38
83 -115 74 -123 -6 -6 -173 -40 -246 -49 -25 -3 -53 -8 -62 -10 -10 -3 -28 -7
-40 -9 -13 -2 -93 -16 -178 -31 -85 -14 -164 -28 -175 -29 -11 -2 -58 -10
-105 -19 -47 -8 -96 -17 -110 -20 -125 -21 -157 -36 -169 -81 -10 -37 4 -80
32 -100 28 -20 71 -19 197 4 58 11 119 22 135 25 17 2 95 16 175 30 156 28
179 32 225 40 433 73 488 84 512 108 29 29 33 91 9 157 -9 25 -13 48 -9 51 31
27 695 518 722 534 79 46 175 52 260 15z m-4075 -487 c3 -15 10 -54 15 -87 6
-33 13 -73 16 -90 14 -80 34 -194 40 -225 22 -132 32 -191 41 -235 3 -16 7
-39 9 -50 2 -17 15 -89 40 -225 2 -14 9 -54 15 -90 5 -36 12 -76 15 -90 3 -14
7 -38 10 -55 3 -16 7 -41 10 -55 3 -14 7 -41 11 -60 19 -116 24 -147 24 -161
0 -12 -32 -21 -152 -42 -158 -28 -176 -31 -268 -47 -30 -6 -75 -13 -100 -16
l-45 -6 -29 164 c-15 90 -30 177 -32 193 -3 17 -7 41 -10 55 -3 14 -8 34 -9
45 -26 147 -87 497 -91 520 -2 17 -11 66 -19 110 -7 44 -16 94 -19 110 -3 17
-14 82 -25 145 -25 138 -25 125 -4 127 10 1 56 8 103 17 47 9 99 18 115 20 57
10 100 17 195 34 140 26 138 26 144 -6z"/>
</g>
</svg>
